# xmcd CD database file
#
# Track frame offsets:
#	150
#	13044
#	20003
#	31441
#	46055
#	56406
#	67941
#	77624
#	89159
#	102979
#	114486
#	125743
#	135127
#	146129
#	155198
#	165556
#	173880
#	185643
#	195848
#	205704
#	217225
#	226907
#	236366
#	246891
#	257585
#	265510
#	275633
#	287144
#	298791
#	310528
#
# Disc length: 4251 seconds
#
# Revision: 3
# Processed by: cddbd v1.5.2PL0 Copyright (c) Steve Scherf et al.
# Submitted via: CDex 2.15
#
DISCID=b010991e
DTITLE=The Cramps - 60 Songs From The Cramps' Crazy Collection CD 1
DYEAR=1900
DGENRE=Rock
TTITLE0=Mickey and Sylvia - No Good Lover
TTITLE1=Collins Kids - Whistle Bait
TTITLE2=Skip Manning - Ham 'n' Eggs
TTITLE3=Smokey Joe - Signifying Monkey
TTITLE4=Charlie Feathers - Stutterin' Cindy
TTITLE5=Bo Diddley - Congo
TTITLE6=The Aladdins - Munch
TTITLE7=Joe Dodo - Groovy
TTITLE8=Jim Backus and Friend - Delicious!
TTITLE9=Clyde Beavers - Here I Am Drunk Again
TTITLE10=Sparkle Moore - Skull And Crossbones
TTITLE11=Rusty Draper - Tongue Tied Over You
TTITLE12=Charlie Ryan and The Timberline Riders - Hot Rod Guitar
TTITLE13=The Sheiks - Baghdad Rock
TTITLE14=The Duals - Lover's Satellite
TTITLE15=The Invaders - Shock Treatment
TTITLE16=Freddie and The Hitch Hikers - Sinners
TTITLE17=Three Suns - Tequila
TTITLE18=The Ventures - Green Onions
TTITLE19=Gary Warren - Midnight Rain
TTITLE20=Kenyon Hopkins - Let Me Out
TTITLE21=Marvin Rainwater - Hot And Cold
TTITLE22=Hank and The Electras - Get Lost Baby
TTITLE23=The Bikinis - Crazy Vibrations
TTITLE24=Jerry Neal - I Hates Rabbits
TTITLE25=Buddy Bow - Twistin' In The Jungle
TTITLE26=James Arr Septette - Congo Elegy
TTITLE27=Glen Reeves and His Rock-Billys - Tarzan
TTITLE28=The Interiors - Voodoo Doll
TTITLE29=Glenda and Glen - Voodoo Doll
EXTD=
EXTT0=
EXTT1=
EXTT2=
EXTT3=
EXTT4=
EXTT5=
EXTT6=
EXTT7=
EXTT8=
EXTT9=
EXTT10=
EXTT11=
EXTT12=
EXTT13=
EXTT14=
EXTT15=
EXTT16=
EXTT17=
EXTT18=
EXTT19=
EXTT20=
EXTT21=
EXTT22=
EXTT23=
EXTT24=
EXTT25=
EXTT26=
EXTT27=
EXTT28=
EXTT29=
PLAYORDER=
